<?xml version="1.0" encoding="utf-8"?>
<!-- Generator: Adobe Illustrator 22.0.1, SVG Export Plug-In . SVG Version: 6.00 Build 0)  -->
<svg version="1.1" id="Laag_1" xmlns="http://www.w3.org/2000/svg" xmlns:xlink="http://www.w3.org/1999/xlink" x="0px" y="0px"
	 viewBox="0 0 1170 780" style="enable-background:new 0 0 1170 780;" xml:space="preserve">
<style type="text/css">
	.st0{fill:#FFFFFF;}
	.st1{fill:#FBF3E2;stroke:#55403F;stroke-width:14.8171;stroke-miterlimit:10;}
	.st2{fill:#FABA0D;}
	.st3{fill:none;}
	.st4{fill:#55403F;}
	.st5{fill:#543F3E;}
	.st6{fill:#503C3B;}
</style>
<rect x="1" class="st0" width="1170" height="780"/>
<polyline class="st1" points="777.8,293.7 700.4,221 668,243.4 597.5,178 567.9,195.3 531.5,154.5 440.4,233.6 407,214.6 
	301.4,331.6 "/>
<path class="st2" d="M758.9,413c0,118.1-92.9,220-211.1,220s-213.9-95.8-213.9-213.9S441,304.4,559.1,304.4S758.9,294.9,758.9,413z"
	/>
<path class="st3" d="M730,552.1c-4.4-1.1-8.8,1.5-10,5.8c-1.1,4.4,1.5,8.8,5.8,10c4.4,1.1,8.8-1.5,10-5.8
	C736.9,557.7,734.3,553.2,730,552.1z"/>
<path class="st3" d="M745.5,516.4c-1.6,1.6-1.5,4.1,0,5.7s4.1,1.5,5.7,0c1.6-1.6,1.5-4.1,0-5.7C749.6,514.8,747,514.8,745.5,516.4z"
	/>
<path class="st3" d="M761.2,488.1c-3.2,3.2-3.1,8.4,0.1,11.6c3.2,3.2,8.4,3.1,11.6-0.1c3.2-3.2,3.1-8.4-0.1-11.6
	S764.4,484.9,761.2,488.1z"/>
<rect x="466.4" y="425.3" class="st3" width="0" height="73.4"/>
<path class="st3" d="M515.6,498.4c-5.9,0-10.7,4.8-10.7,10.7s4.8,10.7,10.7,10.7c5.9,0,10.7-4.8,10.7-10.7S521.5,498.4,515.6,498.4z
	"/>
<path class="st3" d="M577.5,498.4c-5.9,0-10.7,4.8-10.7,10.7s4.8,10.7,10.7,10.7c5.9,0,10.7-4.8,10.7-10.7S583.4,498.4,577.5,498.4z
	"/>
<path class="st3" d="M446.6,605.1V412.5c0-7.6-8.2-12.3-14.8-8.5l-82.7,47.8c-0.8,0.5-1.7,0.8-2.6,1c2.9,26.9,11.1,52.2,23.6,74.8
	C388,559.8,414.5,586.7,446.6,605.1z"/>
<path class="st3" d="M581.6,543.7l82.7,47.8c0.5,0.3,1,0.7,1.5,1.1c49.9-36.6,82.3-95.6,82.5-162.2l-166.7,96.3
	C575,530.4,575,539.9,581.6,543.7z"/>
<path class="st3" d="M466.4,517.1v95.3c0,0.8-0.1,1.7-0.3,2.4c24.7,10.8,51.9,16.7,80.6,16.7c36.8,0,71.2-9.8,100.9-27l-166.3-96
	C474.6,504.7,466.4,509.5,466.4,517.1z"/>
<path class="st4" d="M747.2,408.5c-0.8,0.2-1.5,0.5-2.2,0.9l-82.7,47.8c-6.6,3.8-14.8-0.9-14.8-8.5v-50.6h-19.7v73.4v5.7L547,523.7
	l-80.7-46.6v-5.7l0,0v-73.4h-63.9l-57.2,33c0,7.3,0.4,14.5,1.2,21.6c0.9-0.2,1.8-0.5,2.6-1l82.7-47.8c6.6-3.8,14.8,0.9,14.8,8.5
	v192.6c-32.1-18.3-58.6-45.2-76.5-77.5c34.3,62.5,100.7,104.8,177,104.8c111.4,0,201.8-90.3,201.8-201.8c0-11.1-0.9-21.9-2.6-32.5
	h-0.3C746.4,401.6,746.9,405,747.2,408.5z M546.6,631.5c-28.6,0-55.9-6-80.6-16.7c0.2-0.8,0.3-1.6,0.3-2.4v-95.3
	c0-7.6,8.2-12.3,14.8-8.5l166.3,96C617.8,621.7,583.3,631.5,546.6,631.5z M665.8,592.5c-0.5-0.4-1-0.8-1.5-1.1l-82.7-47.8
	c-6.6-3.8-6.6-13.3,0-17.1l166.7-96.3C748.2,496.9,715.7,555.9,665.8,592.5z"/>
<path class="st3" d="M622.8,480L552,520.9c-3.1,1.8-6.8,1.8-9.9,0L471.3,480c-3.1-1.8-4.9-5-4.9-8.5v5.7l80.7,46.6l80.7-46.6v-5.7
	C627.7,475,625.8,478.2,622.8,480z"/>
<polygon class="st5" points="426.7,232.9 390.2,286.5 301.4,331.6 401,218.2 "/>
<polygon class="st5" points="536.8,157.1 509.6,231.8 460.8,307.9 469.9,262.1 423.7,234.4 "/>
<polygon class="st5" points="645.4,216.9 617.8,309.8 605.3,248.7 574.6,229.2 559.5,196.1 602.2,176.8 "/>
<path class="st6" d="M791.8,429.8c0-10.7-0.7-21.3-2-31.7h-43.6c1.7,10.6,2.6,21.4,2.6,32.5c0,111.4-90.3,201.8-201.8,201.8
	c-76.3,0-142.7-42.3-177-104.8c-12.5-22.6-20.9-47.9-23.9-74.7c0.1,0,0.2-0.1,0.4-0.1c-0.8-7.1-1.2-14.3-1.2-21.6l-0.4,0.3
	c0-0.5,0-1,0-1.6c0-10.8,0.9-21.4,2.5-31.7h-15.4c-2.8,1.9-6.5,1.9-9.3,0h-19.2c-1.3,10.4-2.1,20.9-2.1,31.7
	c0,44.7,11.9,86.5,32.8,122.6l22.1-12.8l34.8,79.8c42.3,34.7,96.5,55.6,155.5,55.6v-25.6l86.7,9.8c53.2-20.1,97.6-58.2,125.7-106.8
	l0,0l-22.2-12.8l51.8-70.1C790.7,456.6,791.8,443.3,791.8,429.8z M318.8,426.7c3.1-3.2,8.3-3.3,11.6-0.2c3.2,3.1,3.3,8.3,0.2,11.6
	c-3.1,3.2-8.3,3.3-11.6,0.2C315.7,435.1,315.6,430,318.8,426.7z M325,484.7c-3.2-3.1-3.3-8.3-0.2-11.6s8.3-3.3,11.6-0.2
	c3.2,3.1,3.3,8.3,0.2,11.6C333.4,487.7,328.2,487.8,325,484.7z M350.3,526.2c-3.1,3.2-8.3,3.3-11.6,0.2c-3.2-3.1-3.3-8.3-0.2-11.6
	c3.1-3.2,8.3-3.3,11.6-0.2C353.3,517.7,353.4,522.9,350.3,526.2z M406.7,609.8c-4.4,1.2-8.9-1.4-10.1-5.7c-1.2-4.4,1.4-8.9,5.7-10.1
	c4.4-1.2,8.9,1.4,10.1,5.7C413.6,604.1,411.1,608.6,406.7,609.8z M440.7,632.9c-4.4,1.2-8.9-1.4-10.1-5.7c-1.2-4.4,1.4-8.9,5.7-10.1
	c4.4-1.2,8.9,1.4,10.1,5.7S445.1,631.7,440.7,632.9z M483.7,651.3c-4.4,1.2-8.9-1.4-10.1-5.7c-1.2-4.4,1.4-8.9,5.7-10.1
	c4.4-1.2,8.9,1.4,10.1,5.7C490.6,645.6,488.1,650.1,483.7,651.3z M526.6,660.6c-4.4,1.2-8.9-1.4-10.1-5.7c-1.2-4.4,1.4-8.9,5.7-10.1
	c4.4-1.2,8.9,1.4,10.1,5.7C533.5,654.9,531,659.4,526.6,660.6z M631.9,640.5c-1.1,4.4-5.6,7-10,5.8c-4.4-1.1-7-5.6-5.8-10
	c1.1-4.4,5.6-7,10-5.8C630.4,631.7,633,636.1,631.9,640.5z M668.9,622.6c-1.1,4.4-5.6,7-10,5.8c-4.4-1.1-7-5.6-5.8-10
	c1.1-4.4,5.6-7,10-5.8C667.4,613.8,670,618.2,668.9,622.6z M706.3,594.5c-1.1,4.4-5.6,7-10,5.8c-4.4-1.1-7-5.6-5.8-10
	c1.1-4.4,5.6-7,10-5.8C704.8,585.7,707.4,590.2,706.3,594.5z M735.8,562.1c-1.1,4.4-5.6,7-10,5.8c-4.4-1.1-7-5.6-5.8-10
	c1.1-4.4,5.6-7,10-5.8C734.3,553.2,736.9,557.7,735.8,562.1z M772.9,472.4c-3.2,3.2-8.3,3.2-11.6,0.1c-3.2-3.2-3.2-8.3-0.1-11.6
	c3.2-3.2,8.3-3.2,11.6-0.1C776,464,776,469.2,772.9,472.4z M775.8,431.4c-3.2,3.2-8.3,3.2-11.6,0.1c-3.2-3.2-3.2-8.3-0.1-11.6
	c3.2-3.2,8.3-3.2,11.6-0.1C779,423,779,428.2,775.8,431.4z"/>
<polygon class="st5" points="830.3,495.6 270.8,486 270.8,319.9 830.3,277.4 "/>
<g>
	<path class="st0" d="M340.7,351.8l-1-4.3L332,348l-1.5,1.5v18.3l1.5,1.3l6-0.3l1.6-1.6v-5.7l-4.8,0.3v-7.1l15.6-1v24.9l-8.2,0.4
		l-1-3.2l-3.4,3.4l-9.5,0.4l-8.2-7.5v-25.8l7.8-8.2l15.3-1.1l7.1,6.3v7.9L340.7,351.8z"/>
	<path class="st0" d="M390.4,344.2V366l4.2,1v9.4l-18,0.8V368l2.4-1.3v-7.5l-9.1,0.5v7.4l2.5,1.1v9.3l-17.5,0.8v-9.2l4-1.4v-21.4
		l-4-0.9v-9.2l17.5-1.3v9.3l-2.5,1.4v6.9l9.1-0.6v-6.9l-2.4-1.1v-9.3l18-1.3v9.4L390.4,344.2z"/>
	<path class="st0" d="M426.1,346.4l-1.1-4.5l-9.6,0.6v7.1l9.6-0.6v7.5l-9.6,0.5v7.6l9.6-0.5l1.1-4.7l8.6-0.5v15.5l-35.1,1.6v-9.4
		l4.2-1.5v-22l-4.2-1v-9.5l35.1-2.5v15.6L426.1,346.4z"/>
	<path class="st0" d="M485.4,326.6v10l-4.7,1.6v34.3l-12.3,0.6l-13.9-24.3v14l4.5,1v9.8l-19.3,0.9v-9.6l4.5-1.5v-22.6l-4.5-1v-9.7
		l17.7-1.3l12.5,23.3v-13l-4.6-1v-9.9L485.4,326.6z"/>
	<path class="st0" d="M522.1,343.2l-1.3-8.4l-4.9,0.3v24.3l5.5,1v10.1l-24,1.1v-10l5.3-1.6V336l-4.8,0.3l-1.3,8.4l-9.2,0.6v-18.9
		l44.1-3.2v19.4L522.1,343.2z"/>
	<path class="st0" d="M561,368.8v-10.3l5.1-1.6v-24.2l-5.1-1v-10.4l35.7-2.6l9.5,7.3v14.6l-7,6.3l5.3,8.1l3.7,0.5v11.3l-13.4,0.6
		l-11.1-18.3l-3.6,0.2v6.9l5.2,1.1v10.5L561,368.8z M580.2,339.5l9.8-0.6l1.7-1.5v-5.1L590,331l-9.8,0.6V339.5z"/>
	<path class="st0" d="M645.1,364.9l-20.8,1l-10.8-8.3v-31.7l10.5-9.3l21.6-1.6l10.8,8v32.5C652.5,358.6,648.8,361.8,645.1,364.9z
		 M630.1,328.3l-2,1.6v22l2,1.5l8.8-0.5l2.1-1.7v-22.1l-2-1.4L630.1,328.3z"/>
	<path class="st0" d="M707.5,328.6l-14.6,0.9l-1.5-5.2l-10.6,0.7l-2.2,1.8v22.3l2.3,1.6l10.5-0.6l1.5-5.4l14.6-0.8v9.4
		c-3.7,3.1-7.4,6.2-11.1,9.2l-21.3,1l-12.2-9.1V323l11.7-10.1l22.2-1.6l10.6,7.6V328.6z"/>
	<path class="st0" d="M766.1,319.4l-9.4,7.7l11.6,19.1l6,1.2V359l-27.6,1.3v-11.4l4.1-1.7l-6.4-10.2l-6.5,5.4v5.5l4.1,1.3v11.4
		l-27.3,1.3v-11.2l6-1.8v-26.3l-6-1.1V310l27.2-2v11.5l-3.9,1.8v10.2l12.7-11l-4-1.2v-11.5l27.7-2v11.7L766.1,319.4z"/>
</g>
<g>
	<path class="st0" d="M319.9,459.3v-15.6l6.7-2.1V405l-6.7-1.9v-15.7l47-1.9l12.7,11.7v22.3l-9.3,9.1l7.1,12.8l5,1v17.3l-17.8-0.1
		l-14.7-28.7l-4.7,0.1v10.5l6.9,2.1v15.9L319.9,459.3z M345.1,416.4l13-0.3l2.2-2.2v-7.8l-2.2-2l-13,0.4V416.4z"/>
	<path class="st0" d="M417.7,402.5v38.7l7.6,2.2V460l-35.1-0.2v-16.3l7.3-2.2V403l-7.3-1.9v-16.4l35.1-1.4V400L417.7,402.5z"/>
	<path class="st0" d="M487.1,460.4l-50.3-0.3v-16.8l7.7-2.2v-39.4l-7.7-2v-16.9l50.8-2l19.1,15.9v46.6L487.1,460.4z M466,441
		l13.4-0.1l4.7-4.1v-32.2l-4.5-3.8l-13.7,0.4V441z"/>
	<path class="st0" d="M570.4,406.9l-2.4-8.6l-19.6,0.6v13.3l19.6-0.4V426l-19.6,0.2v14.4l19.6-0.1l2.4-8.7l17.7-0.2v29.5l-71.7-0.5
		V443l8.5-2.4v-41.3l-8.5-2.1v-17.7l71.5-2.8v29.6L570.4,406.9z"/>
	<path class="st0" d="M598.6,461.2v-18.4l9.3-2.5v-43.2l-9.3-2.2v-18.5l65.8-2.6l17.9,13.7V414l-13.1,10.8l10.1,15.2l7.1,1.2v20.6
		l-25.1-0.2l-20.7-34l-6.6,0.1v12.5l9.7,2.4v18.9L598.6,461.2z M633.9,410.4l18.2-0.4l3.1-2.6v-9.2l-3.1-2.4l-18.2,0.5V410.4z"/>
	<path class="st0" d="M775,402.1l-27.1,0.6l-2.9-9.5l-19.6,0.6l-3.6,2.7v5.3l3.1,2.1l34.2,4.5l17,11.7v26.6l-20.8,15.5l-42.4-0.3
		l-19.4-15.2v-16.2l25.6-0.2l2.8,9.4l20.5-0.1l3.6-2.8v-6.1l-2.7-2.2l-33.5-4.8l-16.2-12.3v-24.3l18.6-15.3l43.1-1.7l19.8,14.4
		V402.1z"/>
</g>
<polygon class="st4" points="466.4,477.2 547,536.6 627.7,477.2 "/>
</svg>
