<?xml version="1.0" standalone="no"?>
<!DOCTYPE svg PUBLIC "-//W3C//DTD SVG 20010904//EN"
 "http://www.w3.org/TR/2001/REC-SVG-20010904/DTD/svg10.dtd">
<svg version="1.0" xmlns="http://www.w3.org/2000/svg"
 width="700.000000pt" height="700.000000pt" viewBox="0 0 700.000000 700.000000"
 preserveAspectRatio="xMidYMid meet">
<metadata>
Created by potrace 1.11, written by Peter Selinger 2001-2013
</metadata>
<g transform="translate(0.000000,700.000000) scale(0.100000,-0.100000)"
fill="#000000" stroke="none">
<path d="M3477 6654 c-1 -1 -65 -4 -142 -7 -613 -26 -1218 -241 -1723 -614
-83 -61 -95 -71 -211 -173 -376 -328 -677 -756 -858 -1218 -100 -257 -161
-497 -198 -782 -26 -206 -26 -555 0 -750 3 -19 7 -53 10 -75 4 -37 28 -173 39
-220 72 -323 184 -618 337 -888 71 -126 204 -319 302 -441 75 -93 305 -332
387 -402 334 -284 720 -499 1115 -622 134 -42 264 -77 325 -87 19 -3 58 -10
85 -15 163 -32 304 -43 545 -44 199 -1 307 6 465 30 601 90 1156 346 1625 749
62 54 254 248 310 315 30 36 57 67 61 70 15 13 133 174 186 255 177 266 310
553 397 852 40 138 69 261 82 347 3 22 7 43 9 46 2 3 6 35 9 72 4 37 9 76 11
88 22 116 22 488 -1 680 -2 19 -6 60 -10 90 -3 30 -14 100 -25 155 -81 410
-222 766 -442 1115 -49 79 -187 272 -207 290 -3 3 -37 43 -77 90 -86 103 -246
259 -369 362 -379 314 -828 537 -1299 647 -137 31 -156 35 -275 51 -41 6 -88
13 -105 15 -16 3 -84 7 -150 11 -176 9 -206 10 -208 8z m288 -377 c17 -3 57
-8 90 -11 175 -19 460 -93 655 -168 186 -73 517 -252 623 -337 6 -6 58 -47
115 -92 162 -129 324 -293 457 -465 42 -55 83 -107 91 -117 8 -9 14 -19 14
-22 0 -2 25 -42 55 -88 108 -166 220 -402 290 -612 30 -89 81 -290 90 -351 3
-21 8 -45 11 -53 2 -7 7 -41 10 -75 3 -33 8 -64 10 -67 8 -13 18 -200 18 -329
-1 -130 -9 -292 -19 -355 -3 -16 -7 -43 -9 -60 -61 -442 -256 -905 -535 -1275
-430 -569 -1081 -966 -1761 -1075 -58 -9 -116 -19 -130 -21 -96 -17 -463 -24
-585 -11 -34 4 -83 9 -110 12 -70 7 -164 24 -327 60 -241 52 -619 218 -857
375 -534 354 -917 848 -1124 1450 -44 130 -92 323 -113 460 -3 25 -8 53 -10
63 -26 140 -26 567 0 745 3 18 8 52 11 75 12 80 47 232 81 347 255 876 946
1587 1819 1871 83 27 181 55 230 65 124 26 298 54 370 59 50 4 92 9 94 11 5 4
408 -4 446 -9z"/>
<path d="M2813 5222 l-101 -3 -22 -62 c-12 -34 -30 -84 -40 -112 -10 -27 -73
-201 -140 -385 -67 -184 -160 -441 -206 -570 -47 -129 -89 -244 -94 -255 -5
-11 -25 -65 -44 -120 -19 -55 -42 -118 -50 -140 -139 -379 -286 -790 -286
-797 0 -13 409 -6 413 7 2 5 50 150 107 320 57 171 107 314 111 319 8 9 45 10
579 21 l335 6 195 -492 c107 -271 195 -496 195 -500 0 -4 -29 -33 -65 -64 -36
-32 -99 -88 -140 -125 -41 -37 -120 -107 -175 -156 -55 -49 -115 -102 -133
-119 l-32 -30 66 -175 c91 -244 86 -234 110 -212 11 9 42 37 69 61 28 24 73
65 100 90 28 25 88 80 135 121 46 41 91 82 100 90 9 8 32 29 51 45 126 113
325 290 329 295 10 10 243 220 300 270 62 54 168 149 190 170 14 14 84 77 155
140 72 63 132 117 135 120 3 3 50 46 105 95 55 49 105 94 111 100 6 5 47 42
90 80 43 39 103 93 132 121 l55 50 -63 170 c-35 93 -66 172 -69 176 -4 4 -381
8 -838 10 l-832 2 -132 325 c-73 180 -153 378 -179 441 -26 63 -96 234 -155
380 -59 146 -111 272 -115 280 -9 16 -51 18 -257 12z m242 -942 c70 -179 140
-360 156 -402 l28 -78 -57 -1 c-31 0 -180 -3 -330 -6 -264 -5 -273 -4 -264 14
5 10 28 72 50 138 23 66 80 233 127 370 48 138 93 270 101 295 25 78 24 78 44
35 10 -22 75 -186 145 -365z m1749 -924 c-53 -47 -484 -426 -643 -566 -35 -30
-67 -56 -71 -58 -5 -2 -23 34 -42 79 -18 45 -78 193 -134 328 -55 135 -100
247 -98 249 1 2 141 6 310 8 170 3 309 6 310 7 1 1 98 3 214 4 l212 2 -58 -53z"/>
</g>
</svg>
