<?xml version="1.0" encoding="utf-8"?>
<!-- Generator: Adobe Illustrator 22.0.1, SVG Export Plug-In . SVG Version: 6.00 Build 0)  -->
<svg version="1.1" id="Laag_1" xmlns="http://www.w3.org/2000/svg" xmlns:xlink="http://www.w3.org/1999/xlink" x="0px" y="0px"
	 viewBox="0 0 10 10" style="enable-background:new 0 0 10 10;" xml:space="preserve">
<style type="text/css">
	.st0{fill:#FFFFFF;}
</style>
<g>
	<path class="st0" d="M5.2,4.6L4.5,2.8l0,0L4,2.8L2.9,5.9l0.5,0l0.3-0.8l1.2,0l0.5,1.3L4.7,6.9l0.2,0.5l2.6-2.4L7.3,4.6L5.2,4.6z
		 M3.9,4.6l0.4-1.1l0.4,1.1L3.9,4.6z M5.7,6L5.4,5.1l1.3,0L5.7,6z"/>
	<path class="st0" d="M5,1C2.8,1,1,2.8,1,5c0,2.2,1.8,4,4,4s4-1.8,4-4C9,2.8,7.2,1,5,1z M5,8.5C3,8.5,1.5,7,1.5,5C1.5,3,3,1.5,5,1.5
		S8.5,3,8.5,5C8.5,7,7,8.5,5,8.5z"/>
</g>
</svg>
