<?xml version="1.0" encoding="utf-8"?>
<!-- Generator: Adobe Illustrator 22.0.1, SVG Export Plug-In . SVG Version: 6.00 Build 0)  -->
<svg version="1.1" id="Laag_1" xmlns="http://www.w3.org/2000/svg" xmlns:xlink="http://www.w3.org/1999/xlink" x="0px" y="0px"
	 viewBox="0 0 200 200" style="enable-background:new 0 0 200 200;" xml:space="preserve">
<g>
	<path d="M104.3,91.9L88,51.7l-0.4-1l-10.1,0.2l-25.4,70l11.9-0.2l6.3-18.8l26.1-0.5l11.3,28.4l-15.7,14l4.4,11.7l59.4-53.3L152,92
		L104.3,91.9z M73.8,91.8l8.9-25.8l9.9,25.4L73.8,91.8z M116.7,122.2l-7.8-19.1l30.1-0.5L116.7,122.2z"/>
	<path d="M99.8,9.9c-49.9,0-90.6,40.6-90.6,90.6c0,49.9,40.6,90.6,90.6,90.6s90.6-40.6,90.6-90.6C190.3,50.5,149.7,9.9,99.8,9.9z
		 M99.8,180.5c-44.2,0-80.1-35.9-80.1-80.1c0-44.2,35.9-80.1,80.1-80.1s80.1,35.9,80.1,80.1C179.9,144.6,144,180.5,99.8,180.5z"/>
</g>
</svg>
